<svg width="2917" height="917" viewBox="0 0 2917 917" fill="none" xmlns="http://www.w3.org/2000/svg">
<g clip-path="url(#clip0_17_56)">
<path d="M339.92 199.871H370.35V191.181H379.04V160.751H370.35V152.061H339.92V160.751H331.23V191.181H339.92V199.871Z" fill="white"/>
<path d="M388.46 234.98H403.36V230.73H407.61V215.83H403.36V211.58H388.46V215.83H384.21V230.73H388.46V234.98Z" fill="white"/>
<path d="M338.58 52.69V47.79H335.85V45.59H330.01V42.49H300.21V10.93H296.33V6.46H293.57V3.4H287.61V0.19H264.74V0H241.87V3.21H235.91V6.27H233.15V10.74H229.27V42.31H199.47V45.41H193.63V47.61H190.9V52.51H186.98V98.88H190.53V102.8H193.04V106.15H199.03V109.27H229.19V140.95H233.17V144.59H235.33V147.77H240.79V151.89H264.72V152.08H288.65V147.96H294.11V144.78H296.27V141.14H300.25V109.46H330.41V106.34H336.4V102.99H338.91V99.07H342.46V52.7H338.54L338.58 52.69ZM302.09 87.93H299.17V96.17H297.59V99.06H294.69V101.63H291.51V104.76H287.73V107.88H280.31V110.51H264.74V110.32H249.17V107.69H241.75V104.57H237.97V101.44H234.79V98.87H231.89V95.98H230.31V87.74H227.39V64.26H230.44V57.19H231.77V52.68H235.57V49.98H237.98V47.61H241.87V44.48H249.24V41.17H264.74V41.36H280.24V44.67H287.61V47.8H291.5V50.17H293.91V52.87H297.71V57.38H299.04V64.45H302.09V87.93Z" fill="white"/>
<path d="M758.08 648.95V520.73H749.56V504.88H742.46V499.48H735.07V489.54H718.19V481.34H641.6V379.77H541.57V305.6H531.6V288.89H523.07V281.78H505.2V269.33H252.88V281.78H235.01V288.89H226.48V305.6H216.51V379.77H116.48V481.34H39.89V489.54H23.01V499.48H15.62V504.88H8.52V520.73H0V648.95V777.17H8.52V793.02H15.62V798.42H23.01V808.36H39.89L39.91 860H116.5L116.48 915.51H379.03H641.58L641.6 860H718.2L718.18 808.36H735.06V798.42H742.45V793.02H749.55V777.17H758.07V648.95H758.08ZM626.53 763H379.04H131.55V676.76V637.25H143.54V574.06H154.08V527.29H166.51V502.38H175.35V490.75H188.89V479.82H197.8V469.2H211.41V457.01H238.91V442.59H276.88V431.64H328.08V420.9H429.99V431.64H481.19V442.59H519.16V457.01H546.66V469.2H560.27V479.82H569.18V490.75H582.72V502.38H591.56V527.29H603.99V574.06H614.53V637.25H626.52V676.76V689.61L626.53 763Z" fill="white"/>
<path d="M382.34 543.75C356.71 543.75 335.92 522.97 335.92 497.33H312.91C312.91 522.96 292.13 543.75 266.49 543.75V566.76C292.12 566.76 312.91 587.54 312.91 613.18H335.92C335.92 587.55 356.7 566.76 382.34 566.76V543.75Z" fill="white"/>
<path d="M445.16 543.791H422.15C422.15 569.421 401.37 590.211 375.73 590.211V613.221C401.36 613.221 422.15 634.001 422.15 659.641H445.16C445.16 634.011 465.94 613.221 491.58 613.221V590.211C465.95 590.211 445.16 569.431 445.16 543.791Z" fill="white"/>
</g>
<g clip-path="url(#clip1_17_56)">
<path d="M1401.67 247.07V327.41H1363.2V407.74H1324.73V488.08H1286.26V568.41H1247.79V648.75H1209.33V729.08H1170.86V805.57H1152.67H1148.58H1130.39V729.08H1091.93V648.75H1053.46V568.41H1014.99V488.08H976.52V407.74H938.05V327.41H899.59V247.07H797V339.64H835.47V419.98H873.94V500.31H912.4V580.65H950.87V660.98H989.34V741.32H1027.81V821.66H1066.96V908.1H1072.92V915.98H1148.58H1152.67H1228.33V908.1H1234.29V821.66H1273.45V741.32H1311.91V660.98H1350.38V580.65H1388.85V500.31H1427.32V419.98H1465.78V339.64H1504.25V247.07H1401.67Z" fill="white"/>
<path d="M1266.89 330.151V322.418H1262.58V318.946H1253.38V314.054H1206.42V264.249H1200.31V257.195H1195.96V252.366H1186.57V247.3H1150.53V247H1114.49V252.066H1105.1V256.895H1100.75V263.949H1094.64V313.77H1047.68V318.662H1038.48V322.134H1034.18V329.867H1028V403.044H1033.59V409.23H1037.55V414.517H1046.99V419.441H1094.51V469.436H1100.78V475.18H1104.19V480.198H1112.79V486.7H1150.5V487H1188.21V480.498H1196.81V475.48H1200.22V469.735H1206.49V419.741H1254.01V414.817H1263.45V409.53H1267.41V403.344H1273V330.167H1266.82L1266.89 330.151ZM1209.39 385.764H1204.79V398.767H1202.3V403.328H1197.73V407.384H1192.71V412.324H1186.76V417.247H1175.07V421.398H1150.53V421.098H1126V416.947H1114.3V412.024H1108.35V407.084H1103.34V403.028H1098.77V398.468H1096.28V385.464H1091.68V348.41H1096.48V337.252H1098.58V330.135H1104.57V325.874H1108.36V322.134H1114.49V317.195H1126.11V311.971H1150.53V312.271H1174.96V317.494H1186.57V322.434H1192.7V326.174H1196.5V330.435H1202.48V337.552H1204.58V348.71H1209.39V385.764Z" fill="white"/>
<path d="M1135.7 390.8H1166.12V382.11H1174.81V351.69H1166.12V343H1135.7V351.69H1127V382.11H1135.7V390.8Z" fill="white"/>
</g>
<g clip-path="url(#clip2_17_56)">
<path d="M1710.59 247H1608V915.9H1710.59V247Z" fill="white"/>
<path d="M2149.53 349.59V247L1607.99 247V349.59H2149.53Z" fill="white"/>
<path d="M2149.53 916.231V813.641H1607.99V916.231H2149.53Z" fill="white"/>
<path d="M2089.64 523.26V511.02H2082.81V505.52H2068.21V497.78H1993.7V418.84H1983.99V407.66H1977.09V400.02H1962.2V391.99H1905.02V391.5H1847.84V399.53H1832.95V407.17H1826.05V418.35H1816.34V497.29H1741.83V505.03H1727.23V510.53H1720.4V522.77H1710.6V638.72H1719.49V648.53H1725.76V656.91H1740.74V664.71H1816.17V743.92H1826.13V753.02H1831.53V760.97H1845.19V771.26H1905.03V771.75H1964.87V761.46H1978.53V753.51H1983.93V744.41H1993.89V665.2H2069.32V657.4H2084.3V649.02H2090.57V639.21H2099.46V523.26H2089.66H2089.64ZM1998.39 611.38H1991.09V631.98H1987.15V639.21H1979.91V645.63H1971.95V653.46H1962.49V661.26H1943.93V667.84H1905.01V667.35H1866.09V660.77H1847.53V652.97H1838.07V645.14H1830.11V638.72H1822.87V631.49H1818.93V610.89H1811.63V552.19H1819.25V534.5H1822.57V523.22H1832.07V516.47H1838.11V510.53H1847.83V502.7H1866.25V494.42H1905.01V494.91H1943.77V503.19H1962.19V511.02H1971.91V516.96H1977.95V523.71H1987.45V534.99H1990.77V552.68H1998.39V611.38Z" fill="white"/>
</g>
<g clip-path="url(#clip3_17_56)">
<path d="M2806.87 247V809.42H2775.14V713.35H2712.47V620.01H2649.81V526.67H2587.14V433.33H2524.47V340H2462.48V247H2339.09H2253V916.23H2362.64V355.63H2399.14V446.81H2461.8V540.15H2524.47V633.49H2587.14V726.83H2649.81V820.16H2712.47V916.23H2806.87H2916.51V809.42V247H2806.87Z" fill="white"/>
</g>
<defs>
<clipPath id="clip0_17_56">
<rect width="758.08" height="915.51" fill="white"/>
</clipPath>
<clipPath id="clip1_17_56">
<rect width="707.25" height="668.98" fill="white" transform="translate(797 247)"/>
</clipPath>
<clipPath id="clip2_17_56">
<rect width="541.54" height="669.23" fill="white" transform="translate(1608 247)"/>
</clipPath>
<clipPath id="clip3_17_56">
<rect width="663.51" height="669.23" fill="white" transform="translate(2253 247)"/>
</clipPath>
</defs>
</svg>
